<svg xmlns="http://www.w3.org/2000/svg" width="914" height="273" viewBox="0 0 914 273" version="1.1"><path d="M 346.740 40.193 C 345.392 42.012, 343.359 45.975, 342.220 49 C 339.178 57.082, 333.989 74.237, 333.995 76.191 C 333.998 77.121, 333.550 78.160, 333 78.500 C 332.450 78.840, 332 79.976, 332 81.024 C 332 83.512, 329.088 85, 324.215 85 C 322.061 85, 318.857 85.503, 317.095 86.117 C 314.294 87.093, 313.929 87.628, 314.195 90.367 L 314.500 93.500 321.340 93.416 L 328.180 93.332 327.712 96.416 C 327.455 98.112, 326.553 101.968, 325.708 104.984 C 324.863 108.001, 324.381 110.808, 324.638 111.223 C 324.894 111.638, 324.437 113.445, 323.620 115.239 C 322.804 117.033, 321.902 120.525, 321.615 123 C 320.437 133.152, 319.844 134.736, 315.759 138.635 C 311.518 142.684, 299.210 149.248, 297.658 148.289 C 297.162 147.982, 297.042 145.301, 297.391 142.330 C 297.967 137.427, 297.794 136.714, 295.513 134.600 C 294.131 133.319, 293 131.380, 293 130.290 C 293 126.215, 285.808 122.982, 280.897 124.849 C 278.134 125.899, 272 131.321, 272 132.713 C 272 133.213, 271.196 134.495, 270.214 135.561 C 267.808 138.174, 264.292 145.857, 263.573 150.071 C 262.959 153.673, 265.207 157.633, 268.096 158.039 C 272.978 158.727, 275.176 157.652, 282.500 151 C 290.661 143.587, 292.557 142.605, 291.668 146.250 C 290.586 150.687, 292.297 155.085, 295.655 156.497 C 298.449 157.672, 299.274 157.579, 303.147 155.659 C 308.448 153.030, 312.754 150.290, 315.750 147.641 L 318 145.651 318 155.005 C 318 165.113, 319.099 169.700, 322.721 174.711 C 326.673 180.178, 329.742 176.864, 326.494 170.636 C 324.655 167.109, 324.428 148.401, 326.160 143.071 C 326.799 141.107, 329.499 134.942, 332.160 129.372 C 334.822 123.801, 337 118.540, 337 117.681 C 337 116.821, 337.450 115.840, 338 115.500 C 338.550 115.160, 339 113.874, 339 112.641 C 339 111.408, 339.379 109.972, 339.842 109.450 C 340.304 108.927, 341.686 105.125, 342.912 101 C 344.138 96.875, 345.320 92.938, 345.539 92.250 C 346.166 90.282, 350.007 90.717, 349.956 92.750 C 349.893 95.245, 347.566 103.768, 346.715 104.618 C 346.322 105.012, 346 106.608, 346 108.167 C 346 109.725, 345.595 111, 345.101 111 C 344.606 111, 343.966 112.912, 343.679 115.250 C 342.678 123.391, 341.076 130.235, 339.670 132.381 C 338.891 133.570, 337.989 136.333, 337.665 138.521 C 336.360 147.346, 335.738 150.044, 334.890 150.568 C 333.634 151.344, 333.785 155.765, 335.201 159.679 C 336.771 164.022, 339.610 164.029, 343.804 159.702 C 345.562 157.889, 347 156.045, 347 155.606 C 347 155.166, 348.800 152.762, 351 150.263 C 353.200 147.763, 355 145.384, 355 144.974 C 355 144.565, 356.112 143.501, 357.471 142.611 L 359.942 140.992 361.488 146.309 C 363.398 152.882, 369.032 158.806, 374.164 159.639 C 379.592 160.520, 384.199 157.430, 397.302 144.117 C 408.073 133.175, 408.932 132.034, 407.125 131.067 C 405.448 130.170, 403.835 130.996, 396.570 136.475 C 382.949 146.749, 374.920 152, 372.833 152 C 370.330 152, 368.361 147.313, 367.439 139.163 C 366.805 133.563, 366.423 132.753, 363.763 131.378 C 360.327 129.601, 356.817 130.601, 351.867 134.765 C 350.290 136.092, 349 136.680, 349 136.070 C 349 134.635, 353.960 125.143, 355.067 124.458 C 356.049 123.852, 365 105.597, 365 104.202 C 365 103.689, 365.856 102.182, 366.902 100.852 C 367.948 99.522, 368.961 97.360, 369.152 96.047 C 369.464 93.904, 374.729 89.814, 376.773 90.126 C 377.173 90.187, 379.413 90.184, 381.750 90.118 C 384.808 90.033, 386 89.579, 386 88.500 C 386 87.601, 385.078 87, 383.700 87 C 382.435 87, 380.973 86.588, 380.450 86.085 C 379.928 85.581, 378.375 85.019, 377 84.835 C 374.394 84.486, 374.108 82.798, 375.926 78.500 C 376.391 77.400, 377.310 74.475, 377.969 72 C 383.037 52.936, 383.018 47.284, 377.868 43.149 C 374.382 40.350, 371.205 40.787, 367.720 44.547 C 365.257 47.203, 359.049 61.366, 357.002 69 C 355.174 75.820, 351.625 84.204, 350.500 84.361 C 349.104 84.555, 348.627 80.131, 349.772 77.601 C 351.660 73.429, 353 68.296, 353 65.238 C 353 63.522, 353.450 61.840, 354 61.500 C 354.550 61.160, 355 59.810, 355 58.500 C 355 57.190, 355.450 55.840, 356 55.500 C 357.427 54.618, 357.211 42.977, 355.712 40 C 353.737 36.076, 349.725 36.162, 346.740 40.193 M 705.889 39.750 C 702.280 43.745, 701.808 44.975, 697.033 62.856 C 695.953 66.902, 694.679 70.727, 694.202 71.356 C 693.726 71.985, 692.744 75.063, 692.021 78.196 L 690.706 83.893 685.103 84.497 C 677.815 85.282, 673 87.416, 673 89.861 C 673 93.177, 675.562 94.325, 681.576 93.704 C 687.924 93.049, 689.306 94.358, 686.610 98.473 C 685.724 99.824, 685 102.269, 685 103.906 C 685 105.543, 684.543 107.165, 683.984 107.510 C 683.425 107.856, 683.231 108.565, 683.554 109.087 C 683.876 109.609, 683.169 113.965, 681.981 118.768 C 680.793 123.571, 679.681 128.972, 679.508 130.770 C 679.165 134.353, 673.780 141.387, 670.500 142.536 C 669.400 142.921, 667.693 143.945, 666.707 144.812 C 664.692 146.583, 657.986 149.110, 656.969 148.481 C 656.605 148.256, 656.637 145.918, 657.042 143.286 C 657.849 138.040, 657.036 135.625, 653.900 133.946 C 652.681 133.294, 652.076 132.245, 652.412 131.368 C 653.134 129.487, 648.991 125.287, 645.567 124.427 C 644.134 124.068, 641.574 124.348, 639.878 125.050 C 636.558 126.426, 631.012 131.786, 631.005 133.628 C 631.002 134.248, 630.303 135.334, 629.450 136.041 C 627.607 137.571, 623.999 145.185, 622.954 149.749 C 621.861 154.527, 624.843 158, 630.039 158 C 633.426 158, 634.876 157.152, 641.151 151.500 C 645.120 147.925, 648.735 145, 649.184 145 C 649.633 145, 650 146.820, 650 149.045 C 650 154.155, 653.769 158.510, 657.267 157.443 C 661.451 156.167, 667.491 153.164, 672 150.118 L 676.500 147.079 677.041 157.345 C 677.503 166.100, 677.977 168.286, 680.265 172.189 C 683.245 177.274, 685.278 178.575, 687.001 176.498 C 687.874 175.446, 687.786 174.325, 686.630 171.808 C 684.370 166.883, 683.832 160.554, 684.814 150.428 C 685.557 142.764, 686.370 139.972, 690.056 132.428 C 694.345 123.652, 698.100 113.847, 702.095 101 C 704.656 92.761, 705.305 91.580, 707.507 91.148 C 709.093 90.836, 709.227 91.330, 708.667 95.415 C 708.318 97.956, 707.351 101.354, 706.517 102.968 C 705.683 104.581, 705 106.958, 705 108.250 C 705 109.543, 704.596 111.028, 704.102 111.550 C 703.609 112.073, 702.951 114.300, 702.641 116.500 C 701.334 125.765, 700.635 128.590, 698.866 131.738 C 697.840 133.566, 697 136.757, 697 138.830 C 697 140.904, 696.622 143.027, 696.161 143.550 C 695.700 144.072, 694.765 146.975, 694.083 150 C 693.032 154.667, 693.078 156.050, 694.385 159.129 C 696.648 164.458, 698.377 164.582, 702.448 159.706 C 718.906 139.992, 718.334 140.555, 719.315 143.119 C 722.370 151.105, 723.729 153.426, 727.171 156.535 C 730.034 159.122, 731.908 160, 734.569 160 C 739.151 160, 741.189 158.868, 748.500 152.264 C 753.361 147.872, 754.557 147.190, 754.802 148.671 C 755.741 154.368, 760.686 158, 767.500 158 C 771.014 158, 776.972 155.841, 779.150 153.778 C 782.769 150.351, 792.120 143.787, 792.641 144.308 C 792.966 144.633, 793.527 146.341, 793.887 148.104 C 795.586 156.409, 801.261 153.888, 809.733 141.067 C 818.262 128.159, 818.336 128.117, 817.512 136.627 C 816.683 145.188, 818.559 150.346, 822.308 149.812 C 823.897 149.586, 824.913 150.312, 826 152.449 C 827.900 156.185, 832.201 157.464, 836.093 155.452 C 837.637 154.653, 839.260 153.371, 839.700 152.603 C 840.140 151.834, 842.750 148.611, 845.500 145.441 C 848.250 142.270, 851.281 138.399, 852.235 136.838 C 853.190 135.277, 854.427 134, 854.985 134 C 856.503 134, 856.286 148.523, 854.750 149.769 C 854.063 150.327, 850.001 152.607, 845.724 154.837 C 841.447 157.066, 836.603 159.928, 834.959 161.195 C 828.633 166.073, 819 175.371, 819 176.599 C 819 177.308, 817.650 178.684, 816 179.659 C 812.822 181.536, 812.188 183.782, 814.250 185.859 C 815.252 186.869, 815.142 186.982, 813.690 186.429 C 812.376 185.929, 811.735 186.298, 811.348 187.778 C 811.055 188.898, 809.916 190.050, 808.818 190.337 C 807.324 190.728, 806.986 191.382, 807.478 192.930 C 807.888 194.221, 807.693 195, 806.960 195 C 806.314 195, 806.029 195.633, 806.326 196.406 C 806.622 197.179, 806.038 198.560, 805.028 199.475 C 802.402 201.851, 801.437 209.721, 802.329 221.500 C 802.722 226.701, 803.666 230.042, 806.002 234.500 C 809.833 241.811, 812.223 244.137, 817.747 245.936 C 828.041 249.287, 837.476 241.427, 847.074 221.506 C 855.985 203.011, 860.385 187.765, 861.579 171.247 C 861.887 166.986, 862.575 161.813, 863.108 159.750 C 864.073 156.014, 864.097 156, 869.342 156 C 873.977 156, 874.980 156.389, 877.721 159.250 C 879.433 161.037, 880.984 163.625, 881.167 165 C 881.350 166.375, 881.950 167.500, 882.500 167.500 C 884.014 167.500, 884.308 162.158, 882.971 158.931 C 880.830 153.761, 870.738 147.754, 865.785 148.701 L 863.282 149.179 862.777 136.926 C 862.351 126.577, 861.989 124.465, 860.445 123.336 C 857.745 121.362, 855.244 121.704, 852.933 124.362 L 850.879 126.725 848.016 123.862 C 846.442 122.288, 844.221 121, 843.080 121 C 840.778 121, 833 127.529, 833 129.461 C 833 130.137, 832.153 131.456, 831.118 132.393 C 830.083 133.329, 828.489 136.760, 827.576 140.015 C 824.895 149.569, 823.842 148.480, 824.190 136.513 C 824.486 126.315, 824.394 125.747, 822.139 123.917 C 819.215 121.543, 815.700 121.474, 811.904 123.716 C 808.840 125.526, 808.203 127.803, 810.200 129.800 C 811.133 130.733, 811.022 131, 809.700 131 C 808.765 131, 807.100 130.100, 806 129 C 803.134 126.134, 801.748 126.486, 798.120 131 C 796.352 133.200, 794.242 135, 793.431 135 C 792.621 135, 791.495 136.012, 790.930 137.250 C 789.879 139.551, 771.411 149.306, 765.594 150.633 L 762.688 151.295 763.312 146.743 C 763.655 144.239, 765.318 139.172, 767.008 135.482 C 769.887 129.198, 769.982 128.622, 768.518 126.386 C 767.658 125.074, 766.402 124, 765.727 124 C 764.371 124, 759 130.306, 759 131.898 C 759 134.854, 736.069 152, 732.115 152 C 729.292 152, 727.860 148.836, 726.955 140.594 C 726.357 135.140, 725.691 133.168, 723.981 131.784 C 720.845 129.244, 718.883 129.541, 713.100 133.432 C 707.572 137.153, 706.764 136.470, 710.217 131 C 714.354 124.446, 714.921 123.500, 715.613 122 C 715.993 121.175, 716.836 119.825, 717.487 119 C 718.138 118.175, 719.273 115.925, 720.009 114 C 720.745 112.075, 723.256 106.391, 725.589 101.369 C 729.594 92.749, 730.032 92.204, 733.416 91.619 C 735.387 91.279, 738.575 90.726, 740.500 90.391 C 742.425 90.055, 743.996 89.268, 743.992 88.641 C 743.982 87.101, 739.254 85, 735.801 85 C 734.260 85, 733 84.792, 733 84.538 C 733 84.283, 733.879 81.696, 734.952 78.788 C 741.506 61.041, 742.501 48.046, 737.676 43.221 C 735.668 41.214, 734.668 40.914, 731.960 41.509 C 728.120 42.352, 723 47.522, 723 50.556 C 723 51.717, 722.710 52.956, 722.356 53.310 C 721.297 54.369, 717.010 65.378, 717.005 67.050 C 717.002 67.902, 716.460 69.140, 715.800 69.800 C 715.140 70.460, 714.866 71, 715.192 71 C 716.620 71, 712.061 82.548, 710.125 83.833 C 708.114 85.168, 708 85.080, 708 82.181 C 708 80.496, 708.373 78.887, 708.829 78.606 C 709.285 78.324, 710.228 75.485, 710.925 72.297 C 711.622 69.108, 712.885 64.250, 713.732 61.500 C 716.164 53.602, 716.603 42.569, 714.607 39.523 C 712.432 36.204, 709.013 36.293, 705.889 39.750 M 732.877 49.900 C 731.984 50.780, 730.909 52.625, 730.487 54 C 730.066 55.375, 728.712 58.750, 727.478 61.500 C 726.244 64.250, 724.009 69.995, 722.510 74.268 C 720.312 80.532, 720.022 82.322, 721.015 83.518 C 721.691 84.333, 722.768 85, 723.407 85 C 724.859 85, 727.989 79.820, 728.032 77.346 C 728.049 76.331, 728.724 74.626, 729.532 73.559 C 730.339 72.491, 731 69.930, 731 67.868 C 731 65.805, 731.450 63.840, 732 63.500 C 732.550 63.160, 733 61.626, 733 60.090 C 733 58.555, 733.487 55.902, 734.082 54.194 C 735.599 49.843, 735.022 47.786, 732.877 49.900 M 372.750 50.973 C 371.788 52.332, 371 54.006, 371 54.692 C 371 55.378, 370.100 57.542, 369 59.500 C 367.900 61.458, 367 63.921, 367 64.971 C 367 66.022, 366.550 67.160, 366 67.500 C 365.450 67.840, 365 69.126, 365 70.359 C 365 71.592, 364.628 73.027, 364.174 73.550 C 363.720 74.072, 362.736 76.447, 361.989 78.826 C 360.823 82.537, 360.834 83.282, 362.065 84.061 C 364.260 85.451, 364.973 85.201, 365.921 82.709 C 366.400 81.449, 367.514 79.819, 368.396 79.086 C 369.278 78.354, 370 76.712, 370 75.437 C 370 74.161, 370.450 72.840, 371 72.500 C 371.550 72.160, 372 70.820, 372 69.522 C 372 68.224, 372.703 64.418, 373.562 61.064 C 374.421 57.710, 374.984 53.512, 374.812 51.733 L 374.500 48.500 372.750 50.973 M 347.136 57.550 C 347.061 59.227, 346.628 61.027, 346.174 61.550 C 345.720 62.072, 344.773 64.525, 344.070 67 C 343.367 69.475, 342.389 72.534, 341.896 73.797 C 341.403 75.060, 341 77.108, 341 78.347 C 341 79.586, 340.460 81.140, 339.800 81.800 C 338.997 82.603, 338.962 83, 339.693 83 C 341.030 83, 342 80.654, 342 77.418 C 342 76.088, 342.450 75, 343 75 C 343.550 75, 344 73.650, 344 72 C 344 70.350, 344.488 69, 345.083 69 C 345.679 69, 345.966 68.438, 345.721 67.750 C 345.476 67.063, 345.925 64.846, 346.717 62.823 C 347.510 60.801, 347.959 58.101, 347.715 56.823 C 347.356 54.938, 347.247 55.075, 347.136 57.550 M 702.733 69.733 C 701.799 72.833, 701.202 75.536, 701.407 75.740 C 701.611 75.945, 702.568 73.602, 703.533 70.533 C 704.498 67.465, 705.095 64.762, 704.860 64.527 C 704.624 64.291, 703.667 66.634, 702.733 69.733 M 260.533 69.533 C 258.590 71.477, 257 73.627, 257 74.311 C 257 74.996, 256.100 76.326, 255 77.268 C 253.900 78.210, 253 79.605, 253 80.368 C 253 81.131, 252.352 82.293, 251.559 82.951 C 250.767 83.608, 250.376 84.815, 250.689 85.633 C 251.011 86.470, 250.143 88.294, 248.701 89.810 C 247.294 91.289, 245.837 93.737, 245.463 95.250 C 245.089 96.763, 244.157 98, 243.392 98 C 242.626 98, 242 98.930, 242 100.066 C 242 102.047, 240.364 105.953, 239.095 107 C 238.762 107.275, 237.899 109.300, 237.179 111.500 C 235.411 116.894, 234.654 118.750, 232.142 123.845 C 230.964 126.234, 230 129.036, 230 130.070 C 230 131.105, 229.102 133.425, 228.004 135.226 C 226.906 137.027, 226.006 139.457, 226.004 140.628 C 226.002 141.798, 225.325 143.315, 224.500 144 C 223.185 145.092, 223 144.085, 223 135.822 C 223 130.640, 223.410 125.972, 223.912 125.450 C 224.414 124.927, 225.060 122.025, 225.349 119 C 226.619 105.695, 227.041 102.512, 227.986 99.112 C 228.537 97.125, 228.991 91.138, 228.994 85.807 C 229 76.920, 228.815 75.984, 226.777 74.557 C 225.555 73.701, 223.375 73, 221.932 73 C 219.405 73, 216 75.645, 216 77.608 C 216 78.131, 215.100 79.207, 214 80 C 212.900 80.793, 212 82.003, 212 82.690 C 212 83.377, 211.100 85.542, 210 87.500 C 208.900 89.458, 208 91.740, 208 92.570 C 208 93.400, 207.100 95.844, 206 98 C 204.900 100.156, 204 103.063, 204 104.460 C 204 105.857, 203.550 107, 203 107 C 202.450 107, 202 108.350, 202 110 C 202 111.650, 201.550 113, 201 113 C 200.450 113, 200 114.350, 200 116 C 200 117.650, 199.550 119, 199 119 C 198.450 119, 198 120.773, 198 122.941 C 198 125.109, 197.550 127.160, 197 127.500 C 196.450 127.840, 196 129.666, 196 131.559 C 196 133.452, 195.595 135, 195.101 135 C 194.606 135, 193.958 136.912, 193.659 139.250 C 193.143 143.300, 192.195 148.407, 189.902 159.500 C 187.817 169.589, 187.726 173.652, 189.525 176.398 C 191.348 179.180, 194.150 179.792, 195.710 177.750 C 196.671 176.491, 198.558 168.486, 199.423 162 C 199.679 160.075, 200.382 156.250, 200.985 153.500 C 201.588 150.750, 202.496 146.250, 203.004 143.500 C 203.511 140.750, 204.423 136.700, 205.030 134.500 C 206.394 129.555, 207.816 123.542, 208.643 119.226 C 208.987 117.425, 209.659 115.711, 210.135 115.417 C 210.611 115.123, 211 113.810, 211 112.500 C 211 111.190, 211.450 109.840, 212 109.500 C 212.550 109.160, 213 107.810, 213 106.500 C 213 105.190, 213.450 103.840, 214 103.500 C 214.550 103.160, 215 101.810, 215 100.500 C 215 99.190, 215.450 97.840, 216 97.500 C 216.550 97.160, 217.014 96.121, 217.032 95.191 C 217.049 94.261, 217.778 92.600, 218.651 91.500 C 220.373 89.330, 220.304 90.631, 217.853 106.500 C 216.057 118.137, 215.306 129.593, 215.798 137.864 C 216.274 145.852, 216.462 146.401, 219.993 150.114 C 222.027 152.251, 224.576 154, 225.658 154 C 228.624 154, 235 146.181, 235 142.544 C 235 141.728, 235.900 139.458, 237 137.500 C 238.100 135.542, 239 133.079, 239 132.029 C 239 130.978, 239.450 129.840, 240 129.500 C 240.550 129.160, 241 127.810, 241 126.500 C 241 125.190, 241.450 123.840, 242 123.500 C 242.550 123.160, 243 121.810, 243 120.500 C 243 119.190, 243.450 117.840, 244 117.500 C 244.550 117.160, 245 115.784, 245 114.441 C 245 113.098, 245.395 112, 245.879 112 C 246.362 112, 247.309 110.537, 247.984 108.750 C 251.814 98.604, 263.074 78.723, 263.785 80.854 C 263.974 81.423, 263.651 82.784, 263.065 83.879 C 262.479 84.973, 262 87.473, 262 89.434 C 262 91.395, 261.550 93, 261 93 C 260.450 93, 260 94.800, 260 97 C 260 99.200, 259.550 101, 259 101 C 258.450 101, 258 102.773, 258 104.941 C 258 107.109, 257.550 109.160, 257 109.500 C 256.450 109.840, 256 112.026, 256 114.359 C 256 116.692, 255.588 119.028, 255.084 119.550 C 254.153 120.516, 253.818 123.308, 252.110 144.335 C 251.581 150.844, 250.906 156.801, 250.610 157.573 C 249.954 159.282, 251.752 173.980, 253.291 179.500 C 255.317 186.761, 260.007 194, 262.686 194 C 264.990 194, 265.215 191.445, 263.226 187.881 C 262.188 186.022, 260.786 181.663, 260.109 178.197 C 258.788 171.429, 258.788 147.320, 260.109 143.068 C 260.548 141.655, 261.447 136.450, 262.106 131.500 C 262.766 126.550, 263.947 119.575, 264.731 116 C 265.516 112.425, 266.581 107.116, 267.100 104.202 C 267.618 101.289, 268.702 97.014, 269.507 94.702 C 270.312 92.391, 270.977 89.064, 270.985 87.309 C 270.993 85.554, 271.450 83.840, 272 83.500 C 272.550 83.160, 273 79.555, 273 75.488 L 273 68.094 269.250 67.053 C 264.181 65.645, 264.517 65.549, 260.533 69.533 M 619.734 70.244 C 617.113 72.585, 614.976 74.993, 614.984 75.595 C 614.993 76.197, 614.153 77.456, 613.118 78.393 C 612.083 79.329, 610.479 82.797, 609.553 86.098 C 608.222 90.841, 607.329 92.305, 605.296 93.078 C 603.880 93.616, 603.011 94.344, 603.363 94.697 C 603.716 95.049, 603.330 96.083, 602.505 96.994 C 601.681 97.905, 600.926 99.966, 600.827 101.575 C 600.728 103.184, 599.939 105.400, 599.073 106.500 C 596.741 109.465, 595 112.798, 595 114.299 C 595 115.028, 594.100 117.487, 593 119.764 C 591.900 122.041, 591 124.574, 591 125.393 C 591 126.212, 590.550 127.160, 590 127.500 C 589.450 127.840, 589 129.141, 589 130.392 C 589 131.643, 588.679 132.987, 588.287 133.379 C 587.895 133.771, 586.564 136.434, 585.328 139.296 L 583.080 144.500 582.951 140.500 C 582.697 132.615, 583.131 126.337, 584.645 116 C 587.917 93.657, 588.273 90.556, 588.396 83.354 C 588.476 78.611, 588.065 76.727, 586.595 75.104 C 582.989 71.122, 575 73.344, 575 78.329 C 575 79.248, 574.556 80, 574.013 80 C 573.471 80, 572.329 81.671, 571.475 83.713 C 570.622 85.756, 569.261 88.159, 568.451 89.054 C 567.641 89.950, 566.870 92.551, 566.739 94.836 C 566.594 97.361, 566.010 98.992, 565.250 98.995 C 564.071 99, 563.548 100.361, 563.936 102.412 C 564.112 103.345, 562.809 107.150, 560.481 112.500 C 559.763 114.150, 558.625 117.525, 557.952 120 C 557.280 122.475, 556.348 125.850, 555.882 127.500 C 554.149 133.631, 551.105 147.883, 548.872 160.322 C 546.789 171.927, 546.713 173.398, 548.070 175.815 C 548.894 177.284, 550.374 178.641, 551.359 178.831 C 554.855 179.504, 556.628 176.360, 557.896 167.239 C 560.996 144.933, 572.882 100.448, 578.506 90.102 L 579.920 87.500 579.960 90.169 C 579.982 91.637, 579.299 95.575, 578.442 98.921 C 577.585 102.266, 577.153 105.439, 577.483 105.972 C 577.812 106.505, 577.355 108.346, 576.468 110.062 C 575.218 112.479, 574.815 116.604, 574.682 128.342 C 574.499 144.511, 574.807 145.887, 579.809 151.250 C 585.819 157.694, 590.663 153.378, 596.366 136.500 C 598.410 130.450, 600.964 123.592, 602.041 121.261 C 603.119 118.929, 604 116.545, 604 115.963 C 604 114.582, 617.903 86.688, 618.926 86.015 C 619.357 85.732, 620.432 84.150, 621.315 82.500 C 622.224 80.801, 622.937 80.186, 622.960 81.083 C 622.982 81.954, 622.663 83.005, 622.250 83.419 C 621.837 83.833, 621.451 85.595, 621.392 87.336 C 621.332 89.076, 620.808 91.850, 620.226 93.500 C 617.975 99.886, 617 103.743, 617 106.262 C 617 107.703, 616.550 109.160, 616 109.500 C 615.450 109.840, 615 112.090, 615 114.500 C 615 116.910, 614.550 119.160, 614 119.500 C 613.450 119.840, 613 122.540, 613 125.500 C 613 128.460, 612.609 131.124, 612.132 131.419 C 611.654 131.714, 611.211 135.808, 611.146 140.516 C 611.082 145.224, 610.517 150.033, 609.891 151.203 C 608.732 153.369, 608.991 158.805, 610.904 172.501 C 612.506 183.966, 618.621 195.127, 622.487 193.643 C 624.293 192.950, 623.818 190.116, 620.718 183.102 C 619.062 179.352, 618.776 176.388, 618.784 163.010 C 618.789 154.378, 619.294 144.883, 619.906 141.908 C 620.518 138.934, 621.212 133.350, 621.447 129.500 C 621.682 125.650, 622.327 121.150, 622.881 119.500 C 623.434 117.850, 625.078 111.100, 626.533 104.500 C 627.988 97.900, 630.040 89.350, 631.093 85.500 C 633.282 77.490, 633.579 69.711, 631.750 68.238 C 631.063 67.684, 629.150 66.951, 627.500 66.610 C 624.950 66.081, 623.786 66.626, 619.734 70.244 M 59.738 86.287 C 57.670 87.540, 54.193 90.724, 52.012 93.363 C 37.949 110.381, 30.432 133.465, 29.335 163 C 28.731 179.254, 29.704 186.566, 32.620 187.684 C 35.523 188.799, 36.379 186.404, 34.635 182.045 C 31.521 174.263, 33.186 153.296, 38.527 133.010 C 42.512 117.878, 52.056 99.505, 59.440 92.750 C 62.873 89.609, 64.225 89.361, 66.034 91.541 C 67.108 92.835, 66.818 93.595, 64.221 96.291 C 53.785 107.122, 44.047 133.503, 44.015 151.027 C 43.997 160.971, 45.399 164, 50.020 164 C 53.659 164, 59.983 157.707, 63.577 150.509 C 64.952 147.754, 65.859 146.400, 65.592 147.500 C 65.324 148.600, 64.419 152.216, 63.581 155.536 C 61.370 164.288, 61.072 173.500, 63 173.500 C 64.022 173.500, 64.766 171.907, 65.334 168.500 C 66.714 160.229, 71.965 144.010, 76.018 135.500 C 79.958 127.230, 87.883 117.433, 88.729 119.788 C 89.835 122.866, 83.471 148.422, 80.770 151.750 C 79.521 153.288, 74.791 153.391, 73.313 151.913 C 72.029 150.629, 71.474 151.387, 70.553 155.680 C 69.994 158.292, 70.248 159.062, 71.974 159.986 C 73.130 160.605, 74.959 160.831, 76.038 160.488 C 78.986 159.552, 78.477 161.031, 73.064 169.122 C 67.311 177.721, 62.373 183.242, 55.750 188.483 C 50.430 192.692, 49.875 194, 53.410 194 C 58.916 194, 72.566 179.980, 80.286 166.394 C 84.484 159.007, 84.524 158.972, 90.953 157.026 C 94.502 155.952, 97.571 155.237, 97.772 155.438 C 97.973 155.639, 96.531 162.194, 94.569 170.003 C 90.532 186.064, 90.137 191.712, 92.817 195.022 C 94.361 196.929, 94.961 197.091, 96.807 196.103 C 101.321 193.687, 103.992 184.549, 106.043 164.500 C 107.138 153.793, 107.967 151.067, 110.141 151.015 C 110.494 151.007, 109.881 154.938, 108.778 159.750 C 107.612 164.841, 106.716 172.564, 106.637 178.218 C 106.515 186.905, 106.726 188.162, 108.632 190.073 C 114.815 196.268, 120.764 183.502, 123.176 158.861 L 124.315 147.222 128.408 146.001 C 134.421 144.207, 138 142.145, 138 140.474 C 138 139.663, 137.213 138.952, 136.250 138.894 C 132.938 138.694, 128.628 139.191, 126.427 140.028 C 124.334 140.823, 124.169 140.508, 123.178 133.836 C 120.982 119.037, 115.377 120.127, 108.497 136.691 L 106.085 142.500 106.027 137.500 C 105.903 126.623, 100.660 113, 96.597 113 C 95.693 113, 95.112 110.635, 94.691 105.250 C 93.959 95.860, 92.548 91.384, 89.177 87.750 C 86.079 84.411, 80.379 84.084, 75.018 86.938 C 71.539 88.790, 71.534 88.789, 69.316 86.396 C 66.551 83.413, 64.525 83.390, 59.738 86.287 M 79.500 90.967 C 78.400 91.298, 76.360 92.144, 74.967 92.846 C 72.465 94.108, 72.439 94.245, 72.838 104.165 C 73.184 112.790, 72.346 122.106, 70.334 132 C 70.003 133.627, 71.194 132.406, 73.747 128.500 C 78.106 121.832, 85.730 114, 87.862 114 C 88.967 114, 89.159 112.217, 88.820 105.127 C 88.256 93.326, 85.511 89.156, 79.500 90.967 M 358.650 93.104 C 356.266 98.659, 354.719 104.675, 355.299 106.134 C 355.613 106.924, 355.875 106.551, 355.921 105.250 C 355.968 103.907, 356.632 103, 357.567 103 C 358.680 103, 358.950 102.419, 358.500 101 C 358.136 99.853, 358.320 99, 358.933 99 C 359.520 99, 360 98.319, 360 97.486 C 360 96.654, 360.551 95.090, 361.225 94.011 C 362.161 92.512, 362.174 91.774, 361.279 90.879 C 360.383 89.983, 359.764 90.508, 358.650 93.104 M 718.279 92.250 C 716.883 94.056, 713.733 106.066, 714.463 106.796 C 714.802 107.135, 715.339 106.420, 715.656 105.206 C 715.974 103.993, 716.842 103, 717.585 103 C 718.335 103, 718.697 102.375, 718.399 101.597 C 718.103 100.825, 718.773 98.406, 719.887 96.221 C 721.753 92.564, 721.774 91, 719.956 91 C 719.565 91, 718.810 91.563, 718.279 92.250 M 64.124 103 C 56.164 113.609, 50.153 131.723, 49.275 147.750 C 48.745 157.407, 48.824 158, 50.645 158 C 53.417 158, 58.576 148.977, 62.139 137.897 C 65.346 127.923, 68.303 109.597, 67.808 102.755 L 67.500 98.500 64.124 103 M 452 103.288 C 449.332 104.631, 448.302 108.453, 449.932 110.964 C 450.664 112.091, 451.519 112.203, 453.657 111.452 C 457.040 110.262, 459.276 104.421, 456.919 102.929 C 455.103 101.779, 454.980 101.788, 452 103.288 M 771.250 103.537 C 767.689 105.034, 767.084 107.386, 769.444 110.559 C 770.783 112.360, 771.090 112.389, 773.694 110.968 C 776.789 109.279, 777.948 105.032, 775.801 103.250 C 774.860 102.469, 773.600 102.549, 771.250 103.537 M 94.593 120.250 C 94.404 120.938, 93.735 124.820, 93.106 128.877 C 92.477 132.934, 90.886 139.459, 89.571 143.377 C 88.255 147.295, 87.251 150.565, 87.339 150.645 C 87.891 151.140, 100.650 146.571, 101.309 145.641 C 102.698 143.682, 101.102 128.020, 99.039 123.356 C 97.149 119.083, 95.275 117.773, 94.593 120.250 M 443.178 126.503 C 440.447 128.801, 437.123 136.990, 435.420 145.612 C 434.166 151.961, 440.116 158, 447.625 158 C 452.616 158, 460.819 153.851, 467.160 148.117 C 470.273 145.303, 473.134 143, 473.516 143 C 473.899 143, 474.052 146.520, 473.856 150.821 L 473.500 158.642 466.969 166.071 C 457.900 176.386, 456.697 179.375, 458.418 187.308 C 459.494 192.267, 464.851 198, 468.408 198 C 472.419 198, 478.833 194.323, 480.979 190.793 C 483.723 186.282, 484.286 181.288, 483.050 172.406 L 481.963 164.587 486.231 160.820 C 488.579 158.748, 494.833 154.143, 500.130 150.587 C 505.426 147.031, 510.666 142.969, 511.774 141.561 C 512.881 140.152, 514.255 139, 514.827 139 C 515.398 139, 516.182 137.988, 516.570 136.750 C 516.958 135.512, 518.107 133.435, 519.124 132.132 C 520.141 130.830, 520.727 129.368, 520.427 128.882 C 519.328 127.104, 516.521 128.090, 512.064 131.819 C 509.554 133.919, 504.800 137.507, 501.500 139.793 C 498.200 142.079, 493.700 145.279, 491.500 146.903 C 489.300 148.528, 486.038 150.774, 484.250 151.895 L 481 153.933 481 150.055 C 481 144.477, 484.490 134.045, 486.928 132.338 C 489.721 130.381, 489.541 127.400, 486.508 125.413 C 483.369 123.356, 481.390 124.102, 479.213 128.161 C 477.236 131.850, 469.370 139.962, 467.658 140.079 C 467.021 140.122, 464.475 141.457, 462 143.045 C 454.475 147.874, 450.680 149.697, 446.620 150.434 C 442.930 151.105, 442.768 151.026, 443.301 148.820 C 445.109 141.333, 445.948 138.977, 448.324 134.722 C 450.534 130.764, 450.779 129.609, 449.844 127.557 C 448.239 124.034, 446.449 123.751, 443.178 126.503 M 113.770 137.699 C 112.380 140.890, 111.323 143.598, 111.422 143.717 C 111.520 143.836, 112.928 143.581, 114.550 143.150 C 117.166 142.455, 117.536 141.878, 117.814 138.048 C 118.303 131.321, 116.613 131.176, 113.770 137.699 M 837.997 135.004 C 836.821 136.656, 835.487 139.244, 835.033 140.754 C 834.579 142.264, 833.888 144.287, 833.497 145.250 C 831.979 148.987, 835.008 146.726, 839.352 140.879 C 843.218 135.677, 843.694 134.551, 842.522 133.379 C 840.643 131.500, 840.440 131.573, 837.997 135.004 M 279.915 137.795 C 275.412 142.586, 272.525 146.859, 273.280 147.613 C 273.967 148.301, 286 136.711, 286 135.361 C 286 132.577, 284.106 133.335, 279.915 137.795 M 638.952 137.750 C 634.994 142.047, 632.605 145.938, 633.423 146.756 C 634.337 147.671, 644.775 137.655, 644.892 135.750 C 645.067 132.918, 642.655 133.730, 638.952 137.750 M 116.757 150.313 C 113.599 158.021, 110.344 185.814, 112.876 183.449 C 114.976 181.488, 118.095 164.134, 117.790 156.108 C 117.617 151.572, 117.200 149.232, 116.757 150.313 M 125.551 155.491 C 125.921 157.960, 125.643 166.041, 124.932 173.447 C 123.593 187.396, 124.184 192, 127.312 192 C 128.299 192, 129.065 188.670, 130.130 179.750 L 131.593 167.500 136 176.251 C 141.138 186.454, 145.730 191.538, 148.898 190.533 C 152.497 189.390, 153.046 182, 149.531 182 C 148.617 182, 147.991 182.906, 147.978 184.250 L 147.956 186.500 146.124 184.119 C 145.117 182.809, 141.018 175.384, 137.014 167.619 C 128.866 151.814, 128.342 151, 126.316 151 C 125.178 151, 125.018 151.938, 125.551 155.491 M 852 160 C 850.625 161.076, 849.141 161.966, 848.701 161.978 C 846.388 162.042, 834.809 171.043, 829.070 177.236 C 820.677 186.295, 816.783 192.806, 812.892 204.289 C 810.092 212.549, 809.821 214.377, 810.262 222 C 810.565 227.239, 811.447 231.939, 812.562 234.250 C 814.290 237.834, 814.589 238, 819.317 238 C 823.842 238, 824.613 237.634, 828.382 233.692 C 834.266 227.537, 835.560 225.579, 840.404 215.500 C 850.522 194.448, 852.437 188.029, 854.557 168.058 C 854.875 165.065, 855.555 161.832, 856.068 160.874 C 856.580 159.916, 857 158.877, 857 158.566 C 857 157.378, 854.398 158.124, 852 160 M 100.169 165.681 C 97.752 177.035, 95.881 188.214, 96.323 188.656 C 97.195 189.528, 98.936 182.632, 100.500 172.106 C 102.120 161.212, 101.925 157.435, 100.169 165.681 M 471.252 174.282 C 467.381 179.409, 466.845 180.540, 465.574 186.250 C 465.085 188.445, 465.319 188.999, 466.731 188.996 C 470.330 188.989, 474.847 185.211, 475.933 181.302 C 477.222 176.660, 477.319 170.315, 476.112 169.569 C 475.624 169.268, 473.437 171.388, 471.252 174.282" stroke="none" fill="#d1e2df" fill-rule="evenodd"/></svg>